<?xml version="1.0" encoding="UTF-8" standalone="no"?>
<!-- Uploaded to: SVG Repo, www.svgrepo.com, Generator: SVG Repo Mixer Tools -->

<svg
   width="800px"
   height="800px"
   viewBox="0 0 64 64"
   version="1.1"
   id="svg1"
   sodipodi:docname="compas.svg"
   inkscape:version="1.3 (0e150ed6c4, 2023-07-21)"
   xmlns:inkscape="http://www.inkscape.org/namespaces/inkscape"
   xmlns:sodipodi="http://sodipodi.sourceforge.net/DTD/sodipodi-0.dtd"
   xmlns="http://www.w3.org/2000/svg"
   xmlns:svg="http://www.w3.org/2000/svg">
  <sodipodi:namedview
     id="namedview1"
     pagecolor="#ffffff"
     bordercolor="#000000"
     borderopacity="0.25"
     inkscape:showpageshadow="2"
     inkscape:pageopacity="0.0"
     inkscape:pagecheckerboard="0"
     inkscape:deskcolor="#d1d1d1"
     inkscape:zoom="1.09875"
     inkscape:cx="400.45506"
     inkscape:cy="545.62002"
     inkscape:window-width="1920"
     inkscape:window-height="1057"
     inkscape:window-x="1358"
     inkscape:window-y="815"
     inkscape:window-maximized="1"
     inkscape:current-layer="svg1" />
  <title
     id="title1">des-protractor</title>
  <desc
     id="desc1">Created with Sketch.</desc>
  <defs
     id="defs1" />
  <g
     id="64px-Glyph"
     stroke="none"
     stroke-width="1"
     fill="none"
     fill-rule="evenodd"
     style="fill:#ecb67a;fill-opacity:1">
    <g
       id="des-protractor"
       fill="#000000"
       style="fill:#ecb67a;fill-opacity:1">
      <path
         d="M32.0002,40 L32.0002,37 C32.0002,36.447 31.5532,36 31.0002,36 C30.4472,36 30.0002,36.447 30.0002,37 L30.0002,40 L24.9712,40 L30.5802,27.978 C30.7202,27.987 30.8582,28 31.0002,28 C31.1422,28 31.2802,27.987 31.4202,27.978 L37.0302,40 L32.0002,40 Z M31.0002,16 C33.7572,16 36.0002,18.243 36.0002,21 C36.0002,23.757 33.7572,26 31.0002,26 C28.2432,26 26.0002,23.757 26.0002,21 C26.0002,18.243 28.2432,16 31.0002,16 L31.0002,16 Z M49.0002,40 L42.9952,40 L36.2942,25.566 C37.3542,24.339 38.0002,22.745 38.0002,21 C38.0002,17.481 35.3862,14.568 32.0002,14.08 L32.0002,7 C32.0002,6.447 31.5532,6 31.0002,6 C30.4472,6 30.0002,6.447 30.0002,7 L30.0002,14.08 C26.6142,14.568 24.0002,17.481 24.0002,21 C24.0002,22.745 24.6462,24.339 25.7062,25.566 L19.0052,40 L13.0002,40 C12.4472,40 12.0002,40.447 12.0002,41 C12.0002,41.553 12.4472,42 13.0002,42 L18.0762,42 L14.0932,50.579 C14.0312,50.711 14.0002,50.854 14.0002,51 L14.0002,59 C14.0002,59.469 14.3262,59.875 14.7832,59.977 C14.8552,59.992 14.9292,60 15.0002,60 C15.3822,60 15.7392,59.78 15.9062,59.423 L24.0372,42 L30.0002,42 L30.0002,45 C30.0002,45.553 30.4472,46 31.0002,46 C31.5532,46 32.0002,45.553 32.0002,45 L32.0002,42 L37.9632,42 L46.0942,59.423 C46.2612,59.78 46.6182,60 47.0002,60 C47.0712,60 47.1452,59.992 47.2172,59.977 C47.6742,59.875 48.0002,59.469 48.0002,59 L48.0002,51 C48.0002,50.854 47.9692,50.711 47.9072,50.579 L43.9242,42 L49.0002,42 C49.5532,42 50.0002,41.553 50.0002,41 C50.0002,40.447 49.5532,40 49.0002,40 L49.0002,40 Z"
         id="Fill-373"
         style="fill:#ecb67a;fill-opacity:1" />
    </g>
  </g>
</svg>
