<?xml version="1.0" encoding="UTF-8" standalone="no"?>
<!-- Created with Inkscape (http://www.inkscape.org/) -->

<svg
   width="161.12073mm"
   height="161.11951mm"
   viewBox="0 0 161.12073 161.11951"
   version="1.1"
   id="svg1"
   xml:space="preserve"
   inkscape:version="1.3.2 (091e20e, 2023-11-25, custom)"
   sodipodi:docname="tarjeta_cnc_kitclo.svg"
   xmlns:inkscape="http://www.inkscape.org/namespaces/inkscape"
   xmlns:sodipodi="http://sodipodi.sourceforge.net/DTD/sodipodi-0.dtd"
   xmlns="http://www.w3.org/2000/svg"
   xmlns:svg="http://www.w3.org/2000/svg"><sodipodi:namedview
     id="namedview1"
     pagecolor="#ffffff"
     bordercolor="#000000"
     borderopacity="0.25"
     inkscape:showpageshadow="2"
     inkscape:pageopacity="0.0"
     inkscape:pagecheckerboard="0"
     inkscape:deskcolor="#d1d1d1"
     inkscape:document-units="mm"
     inkscape:zoom="0.25"
     inkscape:cx="2652"
     inkscape:cy="4942"
     inkscape:window-width="1920"
     inkscape:window-height="1057"
     inkscape:window-x="1358"
     inkscape:window-y="-8"
     inkscape:window-maximized="1"
     inkscape:current-layer="layer1"
     showgrid="false" /><defs
     id="defs1" /><g
     inkscape:label="Capa 1"
     inkscape:groupmode="layer"
     id="layer1"
     transform="translate(-36.512502,-137.05416)"><path
       id="path20-1-5-6-0"
       style="fill:#970a58;fill-opacity:1;stroke:none;stroke-width:0.5;stroke-linecap:round;stroke-linejoin:round;stroke-dasharray:0.5, 0.5"
       d="m 117.07367,137.05417 -13.42675,13.42673 13.42675,13.4268 13.42676,-13.4268 z m 26.85302,26.85304 -53.706467,53.70657 53.930307,53.9304 8.72716,-9.175 -44.75552,-44.7554 44.75552,-44.75553 z m 17.90251,17.90256 -35.80452,35.8045 35.80402,35.80394 35.80452,-35.80443 z m 0,17.90194 17.90195,17.90207 -17.90245,17.90242 -17.90201,-17.90193 z m -62.657974,-26.85304 -17.902068,17.902 v 17.91355 l 26.853392,-26.86417 z m -30.594481,30.59445 -14.160603,14.16066 14.129984,14.12999 z m 12.692413,23.11156 v 17.90201 l 17.90251,17.90249 8.950942,-8.95097 z m 35.804512,44.75609 -13.42675,13.42666 13.42626,13.42624 13.42675,-13.42673 z"
       sodipodi:nodetypes="ccccccccccccccccccccccccccccccccccccccccc" /><path
       id="rect23-7-9-1-3-7"
       style="fill:#01bdd4;fill-opacity:1;stroke:none;stroke-width:0.5;stroke-linecap:round;stroke-linejoin:round;stroke-dasharray:0.5, 0.5"
       d="m 99.171288,154.95486 -62.658789,62.65892 62.658789,62.65892 17.934072,-17.93683 17.86794,17.93683 8.95314,-8.95324 -53.708352,-53.70568 53.708352,-53.70567 -8.95314,-8.95325 -17.90101,17.90374 z m -0.0027,17.90374 8.953202,8.95048 -26.854143,26.86521 v -17.91472 z m 53.708342,0 -44.75514,44.75518 44.75514,44.75512 8.9505,-8.95041 -35.80463,-35.80471 35.80463,-35.8047 z m 8.9505,26.85145 -17.901,17.90373 17.901,17.9009 17.90371,-17.9009 z m -93.252507,3.74224 -0.0311,28.28989 -14.12847,-14.1284 z m 12.692724,23.11198 26.854143,26.85422 -8.950507,8.95041 -17.903636,-17.90366 z" /></g></svg>
