<?xml version="1.0" encoding="UTF-8" standalone="no"?>
<!-- Created with Inkscape (http://www.inkscape.org/) -->

<svg
   width="200"
   height="200"
   viewBox="0 0 52.91666 52.916659"
   version="1.1"
   id="svg5"
   inkscape:version="1.3.2 (091e20e, 2023-11-25, custom)"
   sodipodi:docname="logo_completo.svg"
   xml:space="preserve"
   xmlns:inkscape="http://www.inkscape.org/namespaces/inkscape"
   xmlns:sodipodi="http://sodipodi.sourceforge.net/DTD/sodipodi-0.dtd"
   xmlns="http://www.w3.org/2000/svg"
   xmlns:svg="http://www.w3.org/2000/svg"><sodipodi:namedview
     id="namedview7"
     pagecolor="#4e4e4e"
     bordercolor="#000000"
     borderopacity="0"
     inkscape:showpageshadow="2"
     inkscape:pageopacity="0"
     inkscape:pagecheckerboard="0"
     inkscape:deskcolor="#2b2b2b"
     inkscape:document-units="px"
     showgrid="true"
     showborder="false"
     inkscape:zoom="2"
     inkscape:cx="-11"
     inkscape:cy="87.25"
     inkscape:window-width="1920"
     inkscape:window-height="1057"
     inkscape:window-x="1358"
     inkscape:window-y="-8"
     inkscape:window-maximized="1"
     inkscape:current-layer="layer1"
     showguides="false"><inkscape:grid
       type="xygrid"
       id="grid3227"
       units="mm"
       spacingx="99.999998"
       spacingy="99.999998"
       empspacing="1"
       color="#ffffff"
       opacity="0"
       empcolor="#5cff1a"
       empopacity="0.14901961"
       originx="0"
       originy="0"
       dotted="false"
       visible="true"
       snapvisiblegridlinesonly="true"
       enabled="false" /><inkscape:grid
       type="xygrid"
       id="grid32233"
       units="mm"
       spacingy="9.9999998"
       spacingx="9.9999998"
       empspacing="1"
       color="#33ffff"
       opacity="0.12156863"
       empcolor="#33ffff"
       empopacity="0.10196078"
       originx="0"
       originy="0"
       dotted="false"
       visible="true"
       enabled="false" /><inkscape:grid
       type="xygrid"
       id="grid32235"
       empspacing="1"
       dotted="false"
       empcolor="#0dff01"
       empopacity="0.05098039"
       color="#33ff55"
       opacity="0"
       units="mm"
       spacingy="0.99999998"
       spacingx="0.99999998"
       originx="0"
       originy="0"
       visible="true"
       enabled="false" /><inkscape:grid
       type="xygrid"
       id="grid32237"
       units="mm"
       color="#e666ff"
       opacity="0"
       empcolor="#e666ff"
       empopacity="0.03137255"
       dotted="true"
       spacingy="0.49999999"
       spacingx="0.49999999"
       originy="0"
       originx="0"
       empspacing="1"
       visible="true"
       enabled="false" /></sodipodi:namedview><defs
     id="defs2" /><g
     inkscape:label="Capa 1"
     inkscape:groupmode="layer"
     id="layer1"><path
       style="display:inline;fill:#e7e7e7;fill-opacity:1;stroke:#000000;stroke-width:1.5875;stroke-linecap:round;stroke-linejoin:round;stroke-dasharray:none;stroke-opacity:0.37612614;paint-order:markers stroke fill;stop-color:#000000"
       d="m 34.162836,13.372566 c -0.438262,2.335998 -2.094001,4.941563 -4.658969,5.14774 C 33.583168,4.5053762 24.730263,-2.9229212 10.585616,2.6577658 l 0.976071,1.7145436 C 9.2478972,6.4218156 8.7886618,8.1284624 8.3079486,11.00613 11.18559,11.486844 12.892238,11.946079 14.941742,14.259873 L 16.656286,13.2838 c 5.580688,14.144634 -1.84761,22.997539 -15.86254497,18.918248 0.20618049,2.564961 2.81175227,4.2207 5.14774757,4.658969 -0.07989,3.065922 0.4390732,5.755585 2.3664319,7.747657 1.9921025,1.927363 4.6817645,2.446329 7.7476915,2.366437 0.438262,2.335995 2.094001,4.941575 4.658968,5.147751 C 16.635284,38.107918 25.488189,30.679627 39.63283,36.26031 l -0.976063,1.714542 c 2.313785,2.049505 2.773016,3.75615 3.253764,6.633822 2.877661,-0.480678 4.584317,-0.939919 6.633822,-3.253706 l 1.714543,0.976074 C 55.839579,28.1864 48.411288,19.333494 34.396345,23.412786 c 0.206187,-2.564969 2.811751,-4.2207 5.14775,-4.658969 -0.07993,-3.065924 0.439074,-5.755586 2.366436,-7.747687 -1.992101,1.92736 -4.681764,2.446326 -7.747695,2.366436 z"
       id="use14892-8-7-5-2-5-8"
       sodipodi:nodetypes="ccccccccccccccccccccc" /></g></svg>
