<?xml version="1.0" encoding="UTF-8" standalone="no"?>
<!-- Created with Inkscape (http://www.inkscape.org/) -->

<svg
   width="200"
   height="240"
   viewBox="0 0 52.91666 63.499991"
   version="1.1"
   id="svg5"
   inkscape:version="1.3 (0e150ed6c4, 2023-07-21)"
   sodipodi:docname="logo_completo2.svg"
   xmlns:inkscape="http://www.inkscape.org/namespaces/inkscape"
   xmlns:sodipodi="http://sodipodi.sourceforge.net/DTD/sodipodi-0.dtd"
   xmlns="http://www.w3.org/2000/svg"
   xmlns:svg="http://www.w3.org/2000/svg">
  <sodipodi:namedview
     id="namedview7"
     pagecolor="#4e4e4e"
     bordercolor="#000000"
     borderopacity="0"
     inkscape:showpageshadow="2"
     inkscape:pageopacity="0"
     inkscape:pagecheckerboard="0"
     inkscape:deskcolor="#2b2b2b"
     inkscape:document-units="px"
     showgrid="true"
     showborder="false"
     inkscape:zoom="2.0000002"
     inkscape:cx="104.49999"
     inkscape:cy="101.99999"
     inkscape:window-width="1920"
     inkscape:window-height="1057"
     inkscape:window-x="1358"
     inkscape:window-y="0"
     inkscape:window-maximized="1"
     inkscape:current-layer="layer1"
     showguides="false">
    <inkscape:grid
       type="xygrid"
       id="grid3227"
       units="mm"
       spacingx="99.999998"
       spacingy="99.999998"
       empspacing="1"
       color="#ffffff"
       opacity="0"
       empcolor="#5cff1a"
       empopacity="0.14901961"
       originx="0"
       originy="0"
       dotted="false"
       visible="true"
       snapvisiblegridlinesonly="true"
       enabled="false" />
    <inkscape:grid
       type="xygrid"
       id="grid32233"
       units="mm"
       spacingy="9.9999998"
       spacingx="9.9999998"
       empspacing="1"
       color="#33ffff"
       opacity="0.12156863"
       empcolor="#33ffff"
       empopacity="0.10196078"
       originx="0"
       originy="0"
       dotted="false"
       visible="true"
       enabled="false" />
    <inkscape:grid
       type="xygrid"
       id="grid32235"
       empspacing="1"
       dotted="false"
       empcolor="#0dff01"
       empopacity="0.05098039"
       color="#33ff55"
       opacity="0"
       units="mm"
       spacingy="0.99999998"
       spacingx="0.99999998"
       originx="0"
       originy="0"
       visible="true"
       enabled="false" />
    <inkscape:grid
       type="xygrid"
       id="grid32237"
       units="mm"
       color="#e666ff"
       opacity="0"
       empcolor="#e666ff"
       empopacity="0.03137255"
       dotted="true"
       spacingy="0.49999999"
       spacingx="0.49999999"
       originy="0"
       originx="0"
       empspacing="1"
       visible="true"
       enabled="false" />
  </sodipodi:namedview>
  <defs
     id="defs2" />
  <g
     inkscape:label="Capa 1"
     inkscape:groupmode="layer"
     id="layer1">
    <path
       style="display:inline;fill:#ffffff;stroke:none;stroke-width:2;stop-color:#000000"
       d="m 34.400763,12.968268 c -0.45181,2.40822 -2.15874,5.094342 -4.80301,5.306892 C 33.803173,3.826932 24.676563,-3.831026 10.094609,1.922199 l 1.006248,1.767552 c -2.385325,2.11287 -2.858758,3.872281 -3.354333,6.838919 2.966609,0.495575 4.72602,0.969008 6.838889,3.354338 l 1.767552,-1.00625 C 22.106191,27.4587 14.448233,36.58531 0,32.3799 c 0.212555,2.64426 2.898683,4.35119 5.3069,4.80301 -0.08236,3.16071 0.452648,5.93353 2.439595,7.98719 2.053691,1.98695 4.826509,2.52196 7.987225,2.4396 0.451811,2.40822 2.158741,5.09435 4.80301,5.3069 -4.205416,-14.44824 4.921193,-22.10619 19.503143,-16.35297 l -1.00624,1.76755 c 2.38532,2.11287 2.85875,3.87228 3.35436,6.83892 2.96663,-0.49554 4.72605,-0.96898 6.83892,-3.3543 l 1.76755,1.00625 c 5.75322,-14.58195 -1.90473,-23.70856 -16.35297,-19.50315 0.21256,-2.64427 2.89868,-4.35119 5.3069,-4.80301 -0.0824,-3.160712 0.45265,-5.933532 2.4396,-7.98722 -2.05369,1.986947 -4.82651,2.521958 -7.98723,2.439598 z"
       id="use14892-8-7-5-2-5"
       sodipodi:nodetypes="ccccccccccccccccccccc" />
    <path
       d="m 2.0946755,59.873799 0.053481,-0.17827 h 1.5420338 l -0.053481,0.17827 z m 0.909176,-0.17827 q 0.2941452,0 0.4813285,-0.115875 0.1871833,-0.124789 0.3030587,-0.311972 0.1247889,-0.187184 0.2050103,-0.38328 0.080221,-0.205011 0.1515293,-0.365453 h 0.2050103 q -0.1693563,0.508068 -0.2406643,0.775473 -0.062394,0.267405 -0.1247888,0.490242 -0.035654,0.142616 -0.080221,0.311972 -0.035654,0.160443 -0.089135,0.392194 -0.044567,0.222837 -0.1158754,0.56155 H 3.4940935 q 0.02674,-0.213924 0.053481,-0.418934 0.02674,-0.213924 -0.00891,-0.38328 -0.02674,-0.169357 -0.1604429,-0.267405 -0.1337023,-0.106962 -0.4278475,-0.106962 z m 2.362075,-1.443985 Q 5.4550614,57.725648 5.4372344,57.422589 5.4194074,57.110617 5.2143971,56.985828 5.0183004,56.852126 4.5458854,56.852126 H 3.8952006 q -0.3030587,0 -0.472415,0.05348 -0.1604428,0.04457 -0.2584912,0.20501 -0.098048,0.151529 -0.1871833,0.481329 l -1.1854942,4.421091 q -0.089135,0.320885 -0.080221,0.481328 0.017827,0.160443 0.1604428,0.213924 0.1426158,0.04457 0.4456745,0.04457 h 0.6506848 q 0.5615499,0 0.891349,-0.151529 0.3297992,-0.151529 0.5526364,-0.490242 0.2228373,-0.347626 0.436761,-0.935916 h 0.2050103 q -0.044567,0.115875 -0.098048,0.285231 -0.053481,0.169357 -0.098048,0.35654 -0.044567,0.169356 -0.1158753,0.490242 -0.071308,0.311972 -0.1247889,0.650685 -0.454588,-0.01783 -1.0250514,-0.01783 -0.5704634,-0.0089 -1.0161379,-0.0089 -0.1960968,0 -0.5080689,0 -0.3030587,0 -0.6595983,0.0089 -0.3565396,0 -0.72199273,0.0089 -0.3654531,0 -0.6863387544578,0.0089 L 0.04457277,62.779597 q 0.30305867,-0.01783 0.47241498,-0.07131 0.16935632,-0.05348 0.25849122,-0.213924 0.0980484,-0.160443 0.1871833,-0.481328 L 2.1481565,57.591946 q 0.089135,-0.3298 0.071308,-0.481329 -0.00891,-0.160443 -0.1515293,-0.213924 -0.1337024,-0.06239 -0.4367611,-0.07131 l 0.044568,-0.178269 q 0.3297991,0.0089 0.6952522,0.01783 0.3654531,0 0.7219927,0.0089 0.3565397,0 0.6595983,0 0.3119722,0 0.508069,0 0.3921935,0 0.8824355,0 0.4991555,-0.0089 0.891349,-0.02674 -0.1158753,0.311972 -0.2050102,0.606117 -0.089135,0.294145 -0.1337024,0.445674 -0.044567,0.160443 -0.080221,0.311973 -0.02674,0.142615 -0.044567,0.240664 z m 1.4167954,4.57262 q 0.071308,0.03565 0.1515294,0.06239 0.089135,0.01783 0.2584912,0.01783 0.3921936,0 0.6417713,-0.231751 0.2584912,-0.240664 0.2584912,-0.686339 0,-0.276318 -0.1069619,-0.543723 Q 7.8879947,61.166255 7.6295035,60.809716 7.4244932,60.524484 7.2373099,60.230339 7.0501266,59.92728 7.0501266,59.517259 q 0,-0.38328 0.1871833,-0.659598 0.1871833,-0.285232 0.4991555,-0.445674 0.3208857,-0.160443 0.6952522,-0.160443 0.2584913,0 0.508069,0.06239 0.2495777,0.0624 0.4100205,0.231751 0.1693564,0.160443 0.1693564,0.481328 0,0.08022 -0.044567,0.196097 -0.035654,0.106962 -0.1247889,0.187184 -0.089135,0.08022 -0.2406642,0.08022 -0.1426158,0 -0.2495777,-0.09805 -0.1069619,-0.106962 -0.1069619,-0.276319 0,-0.160442 0.062394,-0.303058 0.071308,-0.15153 0.1871833,-0.294145 -0.1693563,-0.106962 -0.4456745,-0.106962 -0.3297991,0 -0.5526364,0.222837 -0.2228372,0.222837 -0.2228372,0.623944 0,0.20501 0.062394,0.365453 0.062394,0.15153 0.1782698,0.320886 0.1247889,0.169356 0.2941452,0.427847 0.2228372,0.338713 0.3743666,0.650685 0.1515293,0.311972 0.1515293,0.659599 0,0.41002 -0.2139238,0.730906 -0.2050102,0.311972 -0.5526364,0.490242 -0.3476261,0.17827 -0.7665601,0.17827 -0.3030587,0 -0.5793769,-0.08913 -0.2763182,-0.08913 -0.454588,-0.276319 -0.1693563,-0.196096 -0.1693563,-0.516982 0,-0.124789 0.080221,-0.258491 0.071308,-0.142616 0.2674047,-0.142616 0.2139238,0 0.3030587,0.17827 0.089135,0.169356 0.089135,0.38328 0,0.142616 -0.02674,0.258491 -0.017827,0.106962 -0.035654,0.20501 z m 6.7203211,-4.447831 -0.02674,0.178269 h -2.772096 l 0.04457,-0.178269 z m -2.264026,3.823887 q -0.08022,0.294145 0.03565,0.427848 0.124789,0.124788 0.320885,0.124788 0.196097,0 0.392194,-0.169356 0.20501,-0.169356 0.401107,-0.721993 l 0.124789,-0.347626 h 0.169356 l -0.187183,0.56155 q -0.196097,0.579377 -0.508069,0.793301 -0.303059,0.213924 -0.713079,0.213924 -0.365453,0 -0.56155,-0.15153 -0.187183,-0.160443 -0.222837,-0.445674 -0.03565,-0.285232 0.07131,-0.650685 l 1.381591,-4.813285 q 0.213924,-0.0089 0.418935,-0.03565 0.213923,-0.02674 0.38328,-0.08913 z m 4.108668,-5.446143 q 0.04457,-0.23175 0.231751,-0.401107 0.196097,-0.169356 0.418934,-0.169356 0.231751,0 0.35654,0.169356 0.133702,0.169357 0.08913,0.401107 -0.04457,0.231751 -0.240664,0.401107 -0.187183,0.169357 -0.418934,0.169357 -0.222837,0 -0.356539,-0.169357 -0.124789,-0.169356 -0.08022,-0.401107 z m -0.276318,2.379902 q 0.187183,-0.552636 -0.124789,-0.552636 -0.20501,0 -0.365453,0.222837 -0.160443,0.222837 -0.338713,0.686339 l -0.124789,0.329799 h -0.169356 l 0.231751,-0.650685 q 0.133702,-0.374366 0.320886,-0.570463 0.187183,-0.196097 0.392193,-0.267405 0.213924,-0.08022 0.392194,-0.08022 0.285231,0 0.418934,0.115875 0.133702,0.115876 0.160443,0.303059 0.02674,0.187183 -0.01783,0.41002 -0.04457,0.213924 -0.115876,0.418934 l -0.953743,2.700788 q -0.08914,0.258491 -0.0624,0.410021 0.03565,0.142615 0.205011,0.142615 0.178269,0 0.338712,-0.196096 0.160443,-0.196097 0.35654,-0.71308 l 0.124789,-0.329799 h 0.169356 l -0.231751,0.650685 q -0.124789,0.347626 -0.303058,0.552636 -0.17827,0.196097 -0.38328,0.276319 -0.205011,0.08913 -0.410021,0.08913 -0.38328,0 -0.516982,-0.17827 -0.133703,-0.17827 -0.09805,-0.463502 0.03565,-0.285231 0.151529,-0.606117 z m 2.860772,3.066241 q -0.07131,0.258491 -0.04457,0.410021 0.02674,0.142615 0.196097,0.142615 0.17827,0 0.329799,-0.196096 0.160443,-0.205011 0.338713,-0.71308 l 0.115875,-0.329799 h 0.169356 l -0.222837,0.650685 q -0.115875,0.338713 -0.285231,0.543723 -0.160443,0.196097 -0.35654,0.285232 -0.196097,0.08913 -0.427848,0.08913 -0.294145,0 -0.436761,-0.115876 -0.133702,-0.106962 -0.169356,-0.294145 -0.02674,-0.187183 0.0089,-0.401107 0.04457,-0.222837 0.106961,-0.436761 l 1.452899,-4.822198 q 0.08913,-0.303059 -0.01783,-0.445675 -0.106962,-0.142616 -0.543723,-0.142616 l 0.06239,-0.187183 q 0.490242,-0.0089 0.864608,-0.09805 0.374367,-0.09805 0.721993,-0.267405 z m 4.777181,-3.770406 q -0.285232,0 -0.552637,0.23175 -0.258491,0.222838 -0.481328,0.615031 -0.213924,0.38328 -0.38328,0.864609 -0.160443,0.481328 -0.249578,0.998311 -0.08914,0.516982 -0.08914,0.989397 0,0.401107 0.124789,0.58829 0.133702,0.187184 0.38328,0.187184 0.285232,0 0.543723,-0.222838 0.267405,-0.23175 0.490242,-0.61503 0.222837,-0.392194 0.38328,-0.873522 0.160443,-0.481329 0.249578,-0.989398 0.08914,-0.516982 0.08914,-0.998311 0,-0.41002 -0.124789,-0.58829 -0.124789,-0.187183 -0.38328,-0.187183 z m -2.522518,3.253424 q 0,-0.392194 0.106962,-0.855696 0.106962,-0.463501 0.320885,-0.918089 0.213924,-0.454588 0.516983,-0.828955 0.311972,-0.374366 0.721993,-0.597203 0.41002,-0.231751 0.909176,-0.231751 0.552636,0 0.882435,0.347626 0.338713,0.338713 0.338713,1.051792 0,0.392193 -0.106962,0.855695 -0.106962,0.463501 -0.320886,0.918089 -0.213924,0.454588 -0.525896,0.828955 -0.303058,0.374367 -0.713079,0.606117 -0.41002,0.222838 -0.909176,0.222838 -0.552636,0 -0.891349,-0.347627 -0.329799,-0.347626 -0.329799,-1.051791 z m 8.14603,-0.169357 q -0.329799,0.463502 -0.401107,0.73982 -0.06239,0.276318 0.106962,0.401107 0.169356,0.115875 0.534809,0.124789 l -0.04457,0.17827 q -0.249578,-0.01783 -0.516982,-0.01783 -0.267405,-0.0089 -0.499156,-0.0089 -0.222837,0 -0.374367,0.0089 -0.151529,0 -0.294145,0.01783 l 0.04457,-0.17827 q 0.124789,-0.02674 0.258491,-0.106962 0.133702,-0.08913 0.294145,-0.249578 0.160443,-0.160443 0.338713,-0.418934 l 3.841714,-5.401575 q 0.03565,0 0.06239,0 0.03565,0 0.07131,0 l 0.35654,5.606585 q 0.02674,0.320886 0.160443,0.445675 0.142616,0.115875 0.276318,0.124789 l -0.03565,0.17827 q -0.17827,-0.01783 -0.445674,-0.01783 -0.267405,-0.0089 -0.525896,-0.0089 -0.320886,0 -0.606118,0.0089 -0.285231,0 -0.463501,0.01783 l 0.03565,-0.17827 q 0.427847,-0.01783 0.606117,-0.151529 0.17827,-0.142616 0.160443,-0.597204 l -0.240664,-4.403265 0.06239,-0.01783 z m 0.713079,-1.1231 h 2.60274 l -0.07131,0.17827 h -2.691874 z m 5.766569,2.567086 h -0.775473 l 1.069618,-3.823888 q 0.02674,-0.08022 0.04457,-0.20501 0.02674,-0.133702 0,-0.240664 -0.02674,-0.106962 -0.169357,-0.106962 -0.196096,0 -0.356539,0.20501 -0.160443,0.20501 -0.338713,0.704166 l -0.115875,0.329799 h -0.169356 l 0.222837,-0.650685 q 0.133702,-0.374366 0.311972,-0.570463 0.187183,-0.196097 0.38328,-0.267405 0.20501,-0.08022 0.38328,-0.08022 0.267405,0 0.38328,0.124789 0.115876,0.115875 0.124789,0.311972 0.01783,0.187183 -0.02674,0.401107 -0.04457,0.213924 -0.09805,0.41002 z m 2.522518,-3.672358 q 0.06239,-0.187184 0.08022,-0.35654 0.02674,-0.169356 -0.02674,-0.276318 -0.04457,-0.115876 -0.213924,-0.115876 -0.249578,0 -0.552636,0.311973 -0.294145,0.303058 -0.606118,0.855695 -0.303058,0.543723 -0.58829,1.274629 -0.285232,0.721993 -0.508069,1.550947 l 0.294145,-1.426158 q 0.410021,-1.069619 0.76656,-1.693563 0.35654,-0.623945 0.71308,-0.891349 0.365453,-0.267405 0.775473,-0.267405 0.285232,0 0.410021,0.133702 0.133702,0.124789 0.160443,0.329799 0.02674,0.205011 -0.01783,0.436761 -0.03565,0.231751 -0.08914,0.445675 l -0.909176,3.360386 h -0.802214 z m 2.228372,0 q 0.08913,-0.276319 0.08913,-0.508069 0,-0.240665 -0.196096,-0.240665 -0.267405,0 -0.56155,0.311973 -0.294145,0.311972 -0.606118,0.891349 -0.311972,0.570463 -0.623944,1.345937 -0.303059,0.76656 -0.58829,1.693563 l 0.20501,-1.140927 q 0.347626,-0.927003 0.641771,-1.568774 0.294145,-0.650685 0.579377,-1.051792 0.285232,-0.401107 0.588291,-0.579377 0.303058,-0.187183 0.659598,-0.187183 0.374366,0 0.508069,0.213924 0.133702,0.213923 0.106962,0.525895 -0.01783,0.303059 -0.115876,0.606118 l -0.864608,2.602739 q -0.08913,0.276318 -0.0624,0.418934 0.02674,0.133702 0.205011,0.133702 0.169356,0 0.329799,-0.187183 0.169356,-0.187183 0.356539,-0.721993 l 0.115876,-0.329799 h 0.169356 l -0.222837,0.650685 q -0.124789,0.374367 -0.311972,0.570463 -0.17827,0.196097 -0.383281,0.267405 -0.196096,0.08022 -0.38328,0.08022 -0.222837,0 -0.356539,-0.07131 -0.124789,-0.06239 -0.196097,-0.169357 -0.106962,-0.169356 -0.07131,-0.418934 0.03565,-0.258491 0.142616,-0.58829 z m 3.065786,3.511915 q 0.213924,0 0.490242,-0.267405 0.276319,-0.276318 0.56155,-0.73982 0.285232,-0.463501 0.525896,-1.051791 0.240665,-0.588291 0.38328,-1.221149 l -0.151529,0.962657 q -0.338713,0.94483 -0.677425,1.524207 -0.338713,0.570464 -0.686339,0.828955 -0.347626,0.249578 -0.704166,0.249578 -0.418934,0 -0.632858,-0.303059 -0.20501,-0.303059 -0.20501,-0.775474 0,-0.427847 0.142616,-0.927003 0.142616,-0.508069 0.392194,-1.007224 0.258491,-0.499156 0.58829,-0.909176 0.329799,-0.410021 0.713079,-0.659598 0.392194,-0.249578 0.793301,-0.249578 0.311972,0 0.472415,0.311972 0.169356,0.303059 0.07131,0.855695 l -0.09805,0.05348 q 0.0624,-0.472415 -0.06239,-0.757647 -0.124789,-0.294145 -0.410021,-0.294145 -0.23175,0 -0.490242,0.231751 -0.249577,0.222837 -0.490242,0.615031 -0.23175,0.38328 -0.427847,0.864608 -0.187183,0.481329 -0.303059,0.998311 -0.106962,0.508069 -0.106962,0.980484 0,0.38328 0.08022,0.53481 0.08914,0.151529 0.23175,0.151529 z m 2.2462,-4.421091 q 0.213924,-0.0089 0.427848,-0.03565 0.213923,-0.02674 0.392193,-0.08913 l -1.114186,3.939763 q -0.01783,0.08022 -0.05348,0.213923 -0.02674,0.124789 0,0.231751 0.03565,0.106962 0.187183,0.106962 0.17827,0 0.347626,-0.196097 0.169357,-0.196097 0.338713,-0.713079 l 0.106962,-0.329799 h 0.169356 l -0.222837,0.650685 q -0.124789,0.356539 -0.303059,0.561549 -0.169356,0.196097 -0.356539,0.276319 -0.187184,0.08913 -0.365453,0.08913 -0.347627,0 -0.490242,-0.231751 -0.115876,-0.20501 -0.06239,-0.472415 0.05348,-0.276318 0.124789,-0.552637 z m 5.089155,0 -0.02674,0.178269 h -2.772096 l 0.04457,-0.178269 z m -2.264027,3.823887 q -0.08022,0.294145 0.03565,0.427848 0.124789,0.124788 0.320886,0.124788 0.196097,0 0.392194,-0.169356 0.20501,-0.169356 0.401107,-0.721993 l 0.124789,-0.347626 h 0.169356 l -0.187183,0.56155 q -0.196097,0.579377 -0.508069,0.793301 -0.303059,0.213924 -0.71308,0.213924 -0.365453,0 -0.561549,-0.15153 -0.187184,-0.160443 -0.222838,-0.445674 -0.03565,-0.285232 0.07131,-0.650685 l 1.381591,-4.813285 q 0.213924,-0.0089 0.418934,-0.03565 0.213924,-0.02674 0.38328,-0.08913 z m 4.10867,-5.446143 q 0.04457,-0.23175 0.231751,-0.401107 0.196096,-0.169356 0.418934,-0.169356 0.23175,0 0.356539,0.169356 0.133703,0.169357 0.08913,0.401107 -0.04457,0.231751 -0.240664,0.401107 -0.187183,0.169357 -0.418934,0.169357 -0.222837,0 -0.35654,-0.169357 -0.124789,-0.169356 -0.08022,-0.401107 z m -0.276318,2.379902 q 0.187183,-0.552636 -0.124789,-0.552636 -0.20501,0 -0.365453,0.222837 -0.160443,0.222837 -0.338713,0.686339 l -0.124789,0.329799 h -0.169356 l 0.231751,-0.650685 q 0.133702,-0.374366 0.320885,-0.570463 0.187184,-0.196097 0.392194,-0.267405 0.213924,-0.08022 0.392193,-0.08022 0.285232,0 0.418934,0.115875 0.133703,0.115876 0.160443,0.303059 0.02674,0.187183 -0.01783,0.41002 -0.04457,0.213924 -0.115875,0.418934 L 51.23869,62.20022 q -0.08913,0.258491 -0.06239,0.410021 0.03565,0.142615 0.20501,0.142615 0.17827,0 0.338713,-0.196096 0.160443,-0.196097 0.35654,-0.71308 l 0.124788,-0.329799 h 0.169357 l -0.231751,0.650685 q -0.124789,0.347626 -0.303059,0.552636 -0.178269,0.196097 -0.38328,0.276319 -0.20501,0.08913 -0.41002,0.08913 -0.38328,0 -0.516983,-0.17827 -0.133702,-0.17827 -0.09805,-0.463502 0.03565,-0.285231 0.151529,-0.606117 z"
       id="text2-4-7"
       style="font-style:italic;font-size:8.91349px;line-height:1.2;font-family:'Playfair Display';-inkscape-font-specification:'Playfair Display Italic';letter-spacing:0.507614px;word-spacing:0px;text-orientation:upright;fill:#ffffff;stroke-width:1.32291;stroke-linecap:round"
       aria-label="Estilo Amati" />
    <text
       xml:space="preserve"
       style="font-style:italic;font-size:8.91349px;line-height:1.2;font-family:'Playfair Display';-inkscape-font-specification:'Playfair Display Italic';letter-spacing:0.507614px;word-spacing:0px;text-orientation:upright;fill:#ffffff;stroke-width:1.32291;stroke-linecap:round;-inkscape-stroke:none"
       x="0.31197748"
       y="81.011917"
       id="text2-4-7-1"><tspan
         sodipodi:role="line"
         id="tspan2-4-4-0"
         style="font-style:italic;font-variant:normal;font-weight:normal;font-stretch:normal;font-family:'Playfair Display';-inkscape-font-specification:'Playfair Display Italic';letter-spacing:0.507614px;stroke-width:1.32291"
         x="0.31197748"
         y="81.011917">Estilo Amati</tspan></text>
    <rect
       style="fill:#6c5353;stroke-width:1.32292;stroke-linecap:round;-inkscape-stroke:none"
       id="rect3-9"
       width="52.91666"
       height="52.916611"
       x="152.82199"
       y="84.0028" />
    <path
       style="display:inline;fill:#ffffff;stroke:none;stroke-width:2;stop-color:#000000"
       d="m 187.22276,96.971073 c -0.45181,2.40822 -2.15874,5.094337 -4.80301,5.306887 4.20542,-14.448217 -4.92119,-22.106177 -19.50314,-16.352957 l 1.00624,1.76756 c -2.38532,2.11287 -2.85875,3.87228 -3.35433,6.83892 2.96661,0.49557 4.72602,0.969 6.83889,3.35433 l 1.76755,-1.00625 c 5.75323,14.581937 -1.90473,23.708547 -16.35296,19.503137 0.21255,2.64426 2.89868,4.35119 5.3069,4.80301 -0.0824,3.16071 0.45264,5.93353 2.43959,7.98719 2.05369,1.98695 4.82651,2.52196 7.98723,2.43961 0.45181,2.40822 2.15874,5.09434 4.80301,5.3069 -4.20542,-14.44824 4.92119,-22.10619 19.50314,-16.35297 l -1.00624,1.76755 c 2.38532,2.11287 2.85875,3.87228 3.35436,6.83892 2.96663,-0.49554 4.72605,-0.96898 6.83892,-3.3543 l 1.76755,1.00625 c 5.75322,-14.58195 -1.90473,-23.70856 -16.35297,-19.50315 0.21256,-2.64427 2.89868,-4.35119 5.3069,-4.80301 -0.0824,-3.160717 0.45265,-5.933537 2.4396,-7.987217 -2.05369,1.98694 -4.82651,2.52195 -7.98723,2.43959 z"
       id="use14892-8-7-5-2-5-8"
       sodipodi:nodetypes="ccccccccccccccccccccc" />
    <text
       xml:space="preserve"
       style="font-style:italic;font-size:16.6719px;line-height:1.2;font-family:'Playfair Display';-inkscape-font-specification:'Playfair Display Italic';letter-spacing:1.87559px;word-spacing:0px;text-orientation:upright;fill:#ffffff;stroke-width:1.32291;stroke-linecap:round;-inkscape-stroke:none"
       x="212.48077"
       y="106.96835"
       id="text2-5"><tspan
         sodipodi:role="line"
         id="tspan2-2"
         style="stroke-width:1.32291"
         x="212.48077"
         y="106.96835">Estilo </tspan><tspan
         sodipodi:role="line"
         style="stroke-width:1.32291"
         x="212.48077"
         y="126.97463"
         id="tspan4">Amati</tspan></text>
    <path
       style="display:inline;fill:#2ad4ff;stroke:none;stroke-width:2;stop-color:#000000"
       d="m 193.15074,177.27449 c -0.45181,2.40822 -2.15874,5.09434 -4.80301,5.30689 4.20542,-14.44822 -4.92119,-22.10618 -19.50314,-16.35296 l 1.00624,1.76756 c -2.38532,2.11287 -2.85875,3.87228 -3.35433,6.83892 2.96661,0.49557 4.72602,0.969 6.83889,3.35433 l 1.76755,-1.00625 c 5.75323,14.58194 -1.90473,23.70855 -16.35296,19.50314 0.21255,2.64426 2.89868,4.35119 5.3069,4.80301 -0.0824,3.16071 0.45264,5.93353 2.43959,7.98719 2.05369,1.98695 4.82651,2.52196 7.98723,2.43961 0.45181,2.40822 2.15874,5.09434 4.80301,5.3069 -4.20542,-14.44824 4.92119,-22.10619 19.50314,-16.35297 l -1.00624,1.76755 c 2.38532,2.11287 2.85875,3.87228 3.35436,6.83892 2.96663,-0.49554 4.72605,-0.96898 6.83892,-3.3543 l 1.76755,1.00625 c 5.75322,-14.58195 -1.90473,-23.70856 -16.35297,-19.50315 0.21256,-2.64427 2.89868,-4.35119 5.3069,-4.80301 -0.0824,-3.16072 0.45265,-5.93354 2.4396,-7.98722 -2.05369,1.98694 -4.82651,2.52195 -7.98723,2.43959 z"
       id="use14892-8-7-5-2-5-8-9"
       sodipodi:nodetypes="ccccccccccccccccccccc" />
    <text
       xml:space="preserve"
       style="font-style:italic;font-size:16.6719px;line-height:1.2;font-family:'Playfair Display';-inkscape-font-specification:'Playfair Display Italic';letter-spacing:1.87559px;word-spacing:0px;text-orientation:upright;fill:#2ad4ff;stroke-width:1.32291;stroke-linecap:round;-inkscape-stroke:none"
       x="218.40875"
       y="187.27177"
       id="text2-5-2"><tspan
         sodipodi:role="line"
         id="tspan2-2-4"
         style="fill:#2ad4ff;stroke-width:1.32291"
         x="218.40875"
         y="187.27177">Estilo </tspan><tspan
         sodipodi:role="line"
         style="fill:#2ad4ff;stroke-width:1.32291"
         x="218.40875"
         y="207.27806"
         id="tspan4-8">Amati</tspan></text>
  </g>
</svg>
