<?xml version="1.0" encoding="UTF-8" standalone="no"?>
<!-- Created with Inkscape (http://www.inkscape.org/) -->

<svg
   width="328.65836mm"
   height="162.74178mm"
   viewBox="0 0 328.65836 162.74178"
   version="1.1"
   id="svg1"
   xml:space="preserve"
   inkscape:version="1.3.2 (091e20e, 2023-11-25, custom)"
   sodipodi:docname="tarjeta_cnc_kitclo.svg"
   xmlns:inkscape="http://www.inkscape.org/namespaces/inkscape"
   xmlns:sodipodi="http://sodipodi.sourceforge.net/DTD/sodipodi-0.dtd"
   xmlns="http://www.w3.org/2000/svg"
   xmlns:svg="http://www.w3.org/2000/svg"><sodipodi:namedview
     id="namedview1"
     pagecolor="#ffffff"
     bordercolor="#000000"
     borderopacity="0.25"
     inkscape:showpageshadow="2"
     inkscape:pageopacity="0.0"
     inkscape:pagecheckerboard="0"
     inkscape:deskcolor="#d1d1d1"
     inkscape:document-units="mm"
     inkscape:zoom="0.25"
     inkscape:cx="2652"
     inkscape:cy="4942"
     inkscape:window-width="1920"
     inkscape:window-height="1057"
     inkscape:window-x="1358"
     inkscape:window-y="-8"
     inkscape:window-maximized="1"
     inkscape:current-layer="layer1"
     showgrid="false" /><defs
     id="defs1" /><g
     inkscape:label="Capa 1"
     inkscape:groupmode="layer"
     id="layer1"
     transform="translate(-36.512502,-137.05416)"><text
       xml:space="preserve"
       style="font-style:normal;font-variant:normal;font-weight:normal;font-stretch:normal;font-size:16.5428px;line-height:1.3;font-family:'Poiret One';-inkscape-font-specification:'Poiret One';text-align:center;letter-spacing:2.22933px;word-spacing:0px;text-orientation:upright;text-anchor:middle;fill:#970a58;fill-opacity:1;stroke:none;stroke-width:0.2;stroke-linecap:round;stroke-linejoin:round;stroke-dasharray:none;paint-order:markers stroke fill"
       x="270.4512"
       y="296.4874"
       id="text5-3"><tspan
         sodipodi:role="line"
         id="tspan5-7"
         style="font-style:normal;font-variant:normal;font-weight:normal;font-stretch:normal;font-family:'Poiret One';-inkscape-font-specification:'Poiret One';letter-spacing:2.22933px;fill:#970a58;fill-opacity:1;stroke-width:0.2"
         x="271.56586"
         y="296.4874">espacios a tu medida</tspan></text><path
       id="path20-1-5-6-0"
       style="fill:#970a58;fill-opacity:1;stroke:none;stroke-width:0.5;stroke-linecap:round;stroke-linejoin:round;stroke-dasharray:0.5, 0.5"
       d="m 117.07367,137.05417 -13.42675,13.42673 13.42675,13.4268 13.42676,-13.4268 z m 26.85302,26.85304 -53.706467,53.70657 53.930307,53.9304 8.72716,-9.175 -44.75552,-44.7554 44.75552,-44.75553 z m 17.90251,17.90256 -35.80452,35.8045 35.80402,35.80394 35.80452,-35.80443 z m 0,17.90194 17.90195,17.90207 -17.90245,17.90242 -17.90201,-17.90193 z m -62.657974,-26.85304 -17.902068,17.902 v 17.91355 l 26.853392,-26.86417 z m -30.594481,30.59445 -14.160603,14.16066 14.129984,14.12999 z m 12.692413,23.11156 v 17.90201 l 17.90251,17.90249 8.950942,-8.95097 z m 35.804512,44.75609 -13.42675,13.42666 13.42626,13.42624 13.42675,-13.42673 z"
       sodipodi:nodetypes="ccccccccccccccccccccccccccccccccccccccccc"
       inkscape:export-filename="logo_solo_kitclo.svg"
       inkscape:export-xdpi="300"
       inkscape:export-ydpi="300" /><path
       id="rect23-7-9-1-3-7"
       style="fill:#01bdd4;fill-opacity:1;stroke:none;stroke-width:0.5;stroke-linecap:round;stroke-linejoin:round;stroke-dasharray:0.5, 0.5"
       d="m 99.171288,154.95486 -62.658789,62.65892 62.658789,62.65892 17.934072,-17.93683 17.86794,17.93683 8.95314,-8.95324 -53.708352,-53.70568 53.708352,-53.70567 -8.95314,-8.95325 -17.90101,17.90374 z m -0.0027,17.90374 8.953202,8.95048 -26.854143,26.86521 v -17.91472 z m 53.708342,0 -44.75514,44.75518 44.75514,44.75512 8.9505,-8.95041 -35.80463,-35.80471 35.80463,-35.8047 z m 8.9505,26.85145 -17.901,17.90373 17.901,17.9009 17.90371,-17.9009 z m -93.252507,3.74224 -0.0311,28.28989 -14.12847,-14.1284 z m 12.692724,23.11198 26.854143,26.85422 -8.950507,8.95041 -17.903636,-17.90366 z" /><path
       style="fill:#970a58;fill-opacity:1;stroke-width:0.999994"
       d="m 266.44788,281.7989 c -2.67396,-0.50721 -4.18213,-1.02838 -6.66242,-2.30235 -2.86806,-1.4732 -4.85956,-2.94204 -6.85056,-5.05256 -2.9374,-3.11382 -5.12777,-7.01306 -6.21179,-11.05797 -0.53091,-1.98006 -0.58861,-2.5959 -0.58861,-6.26786 0,-3.67915 0.0629,-4.28573 0.59241,-6.28417 1.21203,-4.52517 3.58164,-8.54292 6.95818,-11.79792 3.03135,-2.92213 5.66847,-4.49151 9.83277,-5.85186 2.61107,-0.8528 4.37936,-1.11234 7.5787,-1.11234 3.19205,0 4.95864,0.25775 7.57881,1.10854 4.18144,1.35648 8.04447,3.80926 10.82228,6.87167 1.97964,2.18246 1.96841,2.07176 0.33197,3.2624 -0.77621,0.56456 -1.47824,1.00018 -1.56057,0.96757 -0.0835,-0.0345 -0.59553,-0.58254 -1.13893,-1.22014 -2.53043,-2.96961 -6.23977,-5.29656 -10.31258,-6.4693 -1.52242,-0.4388 -2.30038,-0.5079 -5.72105,-0.51067 -4.41802,-0.003 -5.96397,0.29784 -9.1387,1.7834 -6.17319,2.88862 -10.74371,8.96099 -11.9184,15.83508 -0.38842,2.2696 -0.14746,6.83444 0.47377,8.96037 1.42514,4.88685 4.52514,9.26891 8.48405,11.99279 1.4938,1.02782 4.95181,2.61497 6.64096,3.0481 3.45336,0.88534 7.63166,0.87428 11.0015,-0.0346 3.62524,-0.97206 7.99695,-3.70168 10.41587,-6.5035 0.60181,-0.698 1.17721,-1.26858 1.27749,-1.26858 0.36023,0 2.88681,1.92947 2.89259,2.20968 0.003,0.15825 -0.93598,1.23811 -2.08721,2.40069 -3.34618,3.37904 -7.2941,5.70896 -11.59571,6.84314 -1.88928,0.49754 -2.85482,0.60879 -5.88007,0.67167 -2.38328,0.0553 -4.16461,-0.0346 -5.2148,-0.22596 z m 68.97449,-0.0207 c -4.81688,-0.87394 -9.41927,-3.33875 -13.05839,-6.99344 -8.56807,-8.60449 -9.74465,-21.88811 -2.83924,-32.05652 1.2429,-1.83024 3.56436,-4.26382 5.3944,-5.65485 1.93195,-1.46857 5.92939,-3.42879 8.48311,-4.16004 4.61834,-1.3222 10.4428,-1.14689 14.87996,0.44848 8.83736,3.17643 15.09043,10.54682 16.59823,19.56371 0.48952,2.92718 0.34578,7.35519 -0.32631,10.07167 -2.38452,9.63411 -10.29782,17.10208 -19.90468,18.78458 -2.29893,0.40218 -7.00003,0.4001 -9.22687,-0.003 z m 9.65248,-4.00055 c 2.07885,-0.49546 5.44329,-1.97218 7.12265,-3.12757 3.98828,-2.74398 7.21648,-7.32741 8.52654,-12.10584 0.71828,-2.62271 0.71828,-8.23665 0,-10.85923 -0.54847,-1.99906 -1.91224,-5.0084 -2.96174,-6.53404 -2.81591,-4.09266 -7.08294,-7.17683 -11.78248,-8.51659 -2.43894,-0.69476 -7.31369,-0.86115 -10.06734,-0.34275 -6.28916,1.18373 -11.73578,5.30527 -14.64205,11.07967 -1.92248,3.82005 -2.59458,6.93414 -2.36753,10.97062 0.1644,2.92034 0.7442,5.07177 2.17042,8.04835 1.24385,2.59646 2.65312,4.55572 4.47431,6.22025 5.40922,4.94373 12.53954,6.83057 19.52722,5.16727 z M 175.40098,262.82166 V 244.2088 l 1.80983,-1.79943 1.80996,-1.79908 v 6.14521 6.14527 l 17.58943,-17.64287 17.5895,-17.64267 c 0.006,-0.003 4.80307,-0.003 4.80307,-0.003 l -4.01739,4.216 c -2.1514,2.25778 -5.52727,5.70102 -7.45991,7.69186 -6.78629,6.99053 -16.87968,17.43549 -18.30878,18.94655 -1.33102,1.4072 -1.41661,1.5575 -1.09425,1.92291 0.19204,0.21837 0.90266,1.21075 1.57859,2.2061 0.67616,0.99549 2.14393,3.13338 3.26196,4.75085 1.11797,1.61762 4.86646,7.06427 8.3298,12.10349 3.46334,5.03936 6.74588,9.79858 7.29448,10.5764 l 0.9976,1.4139 -2.21728,-0.003 -2.21705,-0.003 -2.04898,-2.99324 c -5.13788,-7.50569 -17.10033,-24.85695 -17.6473,-25.59704 l -0.46623,-0.63159 -2.98352,3.24435 -2.98352,3.24463 v 11.37045 11.37066 h -1.8099 -1.80983 z m 38.23318,-5.7071 v -24.09364 h 1.92297 1.92297 v 24.09364 24.09365 h -1.92297 -1.92297 z m 16.74118,1.92299 v -22.17081 h -4.86395 -4.86402 v -1.92298 -1.92284 h 11.53792 11.53767 v 1.92284 1.92298 h -4.75087 -4.7508 v 22.17081 22.17066 h -1.92298 -1.92297 z m 64.24986,-1.92299 v -24.09364 h 1.92291 1.92303 v 22.16728 22.16721 l 6.61725,0.0622 6.61729,0.0622 0.0187,1.86632 0.0187,1.86646 h -8.55847 -8.55848 z"
       id="path25-5-8"
       sodipodi:nodetypes="ssssssssssscsscssssscssssssccssssssscsssscsssssssssssccccccccccssssssscccsscccccccccccccccccccccccccccccccccccccccccccccccc" /></g></svg>
